<svg width="33" height="20" viewBox="0 0 33 20" fill="none" xmlns="http://www.w3.org/2000/svg">
<g clip-path="url(#clip0)">
<path d="M20.0894 8.06656C21.1728 6.45411 22.2585 4.90343 23.2713 3.3068C23.848 2.39778 24.366 2.3782 24.9832 3.31283C27.331 6.86908 29.7239 10.3952 32.1002 13.9326C32.1422 13.9952 32.1858 14.0562 32.2241 14.1209C32.3427 14.3213 32.3517 14.5449 32.131 14.6338C32.0026 14.685 31.7961 14.5946 31.6475 14.5208C31.5596 14.4772 31.5153 14.3439 31.4522 14.2505C30.0122 12.1078 28.5721 9.96443 27.1313 7.82179C27.0479 7.69828 26.9608 7.57778 26.8572 7.43016C26.5066 7.63125 26.168 7.81501 25.8414 8.01685C25.5486 8.19835 25.2783 8.19157 25.0102 7.97769C24.9907 7.96187 24.9659 7.95133 24.9494 7.93325C24.3953 7.30891 23.848 7.35937 23.179 7.81953C22.4544 8.31734 22.3013 8.22923 21.8756 7.46104C21.8102 7.3428 21.7397 7.22757 21.636 7.04908C21.2779 7.58305 20.9355 8.07032 20.6277 8.57868C20.5811 8.6555 20.6652 8.85432 20.7411 8.9575C22.4019 11.2056 24.0702 13.4484 25.737 15.6919C26.6267 16.8894 27.518 18.0854 28.4069 19.2836C28.4737 19.374 28.5744 19.4711 28.5781 19.5683C28.5826 19.7001 28.5481 19.8869 28.4587 19.9546C28.3701 20.0217 28.1817 20.0036 28.057 19.9614C27.9662 19.9305 27.9031 19.8048 27.8363 19.7151C24.6356 15.4103 21.4356 11.1039 18.2356 6.79829C18.1763 6.71846 18.1125 6.64164 18.0194 6.5234C17.487 6.84875 16.957 7.17034 16.4291 7.49569C15.7466 7.91593 15.7113 7.9325 15.134 7.39853C14.8614 7.14623 14.6782 7.13644 14.4304 7.40606C14.254 7.59811 14.0408 7.76003 13.8305 7.91744C13.4777 8.18103 13.1338 8.0899 12.9401 7.68999C12.853 7.50999 12.7817 7.32171 12.6998 7.1387C12.624 6.9685 12.5436 6.7998 12.4378 6.57235C12.0451 6.83143 11.6749 7.07469 11.3055 7.31945C10.8205 7.64104 10.7004 7.63953 10.2304 7.30665C9.71081 6.93837 9.19049 6.57235 8.60035 6.15512C8.51325 6.27412 8.44343 6.39462 8.35108 6.49403C5.8531 9.18721 3.35288 11.8774 0.852657 14.5683C0.80986 14.6142 0.766313 14.6587 0.724267 14.7061C0.550828 14.9019 0.348107 15.0443 0.117606 14.8221C-0.115898 14.5969 0.0402717 14.3928 0.21296 14.2068C2.7725 11.4511 5.33053 8.69466 7.88857 5.93822C9.59443 4.1006 11.2988 2.26297 13.0054 0.426096C13.5625 -0.173392 13.9694 -0.143267 14.4627 0.520236C16.2639 2.9453 18.0659 5.36961 19.8686 7.79392C19.9272 7.87375 19.9918 7.94681 20.0894 8.06656ZM13.4371 7.63125C13.6443 7.45803 13.7975 7.33226 13.9492 7.20347C14.6557 6.60474 14.7308 6.37052 15.592 7.17561C15.6595 7.23887 15.8127 7.30364 15.8698 7.2705C16.4907 6.90825 17.1004 6.52641 17.7408 6.13253C16.3848 4.30921 15.0596 2.52581 13.7149 0.717555C12.1164 2.43995 10.5532 4.12545 8.96975 5.83128C9.55238 6.24399 10.0877 6.63336 10.6381 7.00239C10.7094 7.04983 10.8746 7.02423 10.9594 6.97226C11.3221 6.75084 11.6682 6.50231 12.0256 6.27186C12.4453 6.00148 12.7456 6.09261 12.9558 6.55051C13.1113 6.88942 13.2592 7.23134 13.4371 7.63125ZM22.5348 7.65685C22.9642 7.41811 23.3502 7.21251 23.7271 6.99109C24.0094 6.8254 24.2654 6.83444 24.5259 7.03628C24.7632 7.22079 25.0065 7.39853 25.258 7.56196C25.3383 7.61393 25.4795 7.65987 25.5493 7.62372C25.8999 7.44297 26.2356 7.2336 26.596 7.02348C25.7633 5.78458 24.9614 4.59239 24.1626 3.40395C24.1115 3.42655 24.08 3.43031 24.0687 3.44688C23.387 4.45381 22.7045 5.45999 22.0325 6.47219C21.9897 6.53696 21.9889 6.66875 22.025 6.7403C22.1759 7.04004 22.3493 7.32849 22.5348 7.65685Z" fill="#62637C"/>
<path d="M13.4376 7.63217C13.2596 7.23226 13.1117 6.89034 12.9563 6.55143C12.7461 6.09353 12.4457 6.0024 12.026 6.27278C11.6687 6.50323 11.3225 6.75176 10.9599 6.97318C10.875 7.02515 10.7099 7.05151 10.6385 7.00331C10.0889 6.63503 9.55285 6.24566 8.97021 5.8322C10.5537 4.12562 12.1169 2.44087 13.7154 0.718475C15.0601 2.52673 16.3853 4.31013 17.7413 6.13345C17.1008 6.52733 16.4912 6.90917 15.8702 7.27142C15.8132 7.30456 15.66 7.23979 15.5924 7.17653C14.7305 6.37144 14.6554 6.60566 13.9496 7.20439C13.798 7.33242 13.6448 7.45895 13.4376 7.63217Z" fill="#FE5246"/>
<path d="M22.535 7.65776C22.3495 7.32939 22.1761 7.04095 22.0244 6.74196C21.9884 6.67041 21.9891 6.53861 22.0319 6.47384C22.7047 5.46164 23.3872 4.45547 24.0681 3.44854C24.0794 3.43122 24.1109 3.4282 24.162 3.40561C24.9609 4.59404 25.7627 5.78624 26.5954 7.02513C26.235 7.23525 25.8994 7.44462 25.5488 7.62537C25.4789 7.66152 25.3378 7.61558 25.2574 7.56362C25.0059 7.40019 24.7627 7.2217 24.5254 7.03793C24.2649 6.8361 24.0096 6.82631 23.7265 6.99275C23.3504 7.21266 22.9644 7.41902 22.535 7.65776Z" fill="#FE5246"/>
</g>
<defs>
<clipPath id="clip0">
<rect width="32.3077" height="20" fill="white"/>
</clipPath>
</defs>
</svg>
